%TF.GenerationSoftware,KiCad,Pcbnew,8.0.3*%
%TF.CreationDate,2024-07-22T10:14:54+02:00*%
%TF.ProjectId,Untitled,556e7469-746c-4656-942e-6b696361645f,rev?*%
%TF.SameCoordinates,Original*%
%TF.FileFunction,Soldermask,Top*%
%TF.FilePolarity,Negative*%
%FSLAX46Y46*%
G04 Gerber Fmt 4.6, Leading zero omitted, Abs format (unit mm)*
G04 Created by KiCad (PCBNEW 8.0.3) date 2024-07-22 10:14:54*
%MOMM*%
%LPD*%
G01*
G04 APERTURE LIST*
G04 Aperture macros list*
%AMRoundRect*
0 Rectangle with rounded corners*
0 $1 Rounding radius*
0 $2 $3 $4 $5 $6 $7 $8 $9 X,Y pos of 4 corners*
0 Add a 4 corners polygon primitive as box body*
4,1,4,$2,$3,$4,$5,$6,$7,$8,$9,$2,$3,0*
0 Add four circle primitives for the rounded corners*
1,1,$1+$1,$2,$3*
1,1,$1+$1,$4,$5*
1,1,$1+$1,$6,$7*
1,1,$1+$1,$8,$9*
0 Add four rect primitives between the rounded corners*
20,1,$1+$1,$2,$3,$4,$5,0*
20,1,$1+$1,$4,$5,$6,$7,0*
20,1,$1+$1,$6,$7,$8,$9,0*
20,1,$1+$1,$8,$9,$2,$3,0*%
G04 Aperture macros list end*
%ADD10RoundRect,0.250000X-0.475000X0.337500X-0.475000X-0.337500X0.475000X-0.337500X0.475000X0.337500X0*%
%ADD11R,1.700000X1.700000*%
%ADD12C,1.700000*%
%ADD13R,1.600000X1.600000*%
%ADD14O,1.600000X1.600000*%
%ADD15RoundRect,0.062500X-0.375000X-0.062500X0.375000X-0.062500X0.375000X0.062500X-0.375000X0.062500X0*%
%ADD16RoundRect,0.062500X-0.062500X-0.375000X0.062500X-0.375000X0.062500X0.375000X-0.062500X0.375000X0*%
%ADD17R,3.100000X3.100000*%
%ADD18RoundRect,0.250000X0.475000X-0.337500X0.475000X0.337500X-0.475000X0.337500X-0.475000X-0.337500X0*%
G04 APERTURE END LIST*
D10*
%TO.C,C1*%
X101600000Y-52556500D03*
X101600000Y-54631500D03*
%TD*%
%TO.C,C4*%
X99187000Y-47730500D03*
X99187000Y-49805500D03*
%TD*%
%TO.C,C5*%
X102108000Y-47730500D03*
X102108000Y-49805500D03*
%TD*%
D11*
%TO.C,U1*%
X89826500Y-49537590D03*
D12*
X89826500Y-52077590D03*
X89826500Y-54617590D03*
X89826500Y-57157590D03*
X89826500Y-59697590D03*
X89826500Y-62237590D03*
X89826500Y-64777590D03*
X105076500Y-64777590D03*
X105076500Y-62237590D03*
X105076500Y-59697590D03*
X105076500Y-57157590D03*
X105076500Y-54617590D03*
X105076500Y-52077590D03*
X105076500Y-49537590D03*
%TD*%
D13*
%TO.C,J1*%
X93726000Y-66040000D03*
D14*
X96266000Y-66040000D03*
X98806000Y-66040000D03*
X101346000Y-66040000D03*
X101346000Y-63500000D03*
X98806000Y-63500000D03*
X96266000Y-63500000D03*
X93726000Y-63500000D03*
%TD*%
D10*
%TO.C,C3*%
X93091000Y-47704000D03*
X93091000Y-49779000D03*
%TD*%
%TO.C,C6*%
X96139000Y-47704000D03*
X96139000Y-49779000D03*
%TD*%
D15*
%TO.C,U2*%
X93066500Y-54143000D03*
X93066500Y-54643000D03*
X93066500Y-55143000D03*
X93066500Y-55643000D03*
X93066500Y-56143000D03*
X93066500Y-56643000D03*
X93066500Y-57143000D03*
X93066500Y-57643000D03*
D16*
X93754000Y-58330500D03*
X94254000Y-58330500D03*
X94754000Y-58330500D03*
X95254000Y-58330500D03*
X95754000Y-58330500D03*
X96254000Y-58330500D03*
X96754000Y-58330500D03*
X97254000Y-58330500D03*
D15*
X97941500Y-57643000D03*
X97941500Y-57143000D03*
X97941500Y-56643000D03*
X97941500Y-56143000D03*
X97941500Y-55643000D03*
X97941500Y-55143000D03*
X97941500Y-54643000D03*
X97941500Y-54143000D03*
D16*
X97254000Y-53455500D03*
X96754000Y-53455500D03*
X96254000Y-53455500D03*
X95754000Y-53455500D03*
X95254000Y-53455500D03*
X94754000Y-53455500D03*
X94254000Y-53455500D03*
X93754000Y-53455500D03*
D17*
X95504000Y-55893000D03*
%TD*%
D18*
%TO.C,C2*%
X101600000Y-59203500D03*
X101600000Y-57128500D03*
%TD*%
M02*
