M48
; DRILL file {KiCad 8.0.3} date 2024-07-22T10:15:16+0200
; FORMAT={-:-/ absolute / inch / decimal}
; #@! TF.CreationDate,2024-07-22T10:15:16+02:00
; #@! TF.GenerationSoftware,Kicad,Pcbnew,8.0.3
; #@! TF.FileFunction,Plated,1,2,PTH
FMAT,2
INCH
; #@! TA.AperFunction,Plated,PTH,ViaDrill
T1C0.0118
; #@! TA.AperFunction,Plated,PTH,ComponentDrill
T2C0.0130
; #@! TA.AperFunction,Plated,PTH,ComponentDrill
T3C0.0315
; #@! TA.AperFunction,Plated,PTH,ComponentDrill
T4C0.0394
%
G90
G05
T1
X3.59Y-1.88
X3.6Y-2.6
X3.61Y-2.33
X3.688Y-2.05
X3.69Y-2.41
X3.704Y-2.02
X3.73Y-1.92
X3.778Y-2.052
X3.78Y-2.41
X3.844Y-2.052
X3.85Y-1.92
X3.87Y-2.37
X3.88Y-2.09
X3.912Y-2.212
X3.97Y-2.01
X4.06Y-2.41
X4.07Y-2.2
X4.08Y-2.61
X4.11Y-1.88
T2
X3.7128Y-2.1533
X3.7128Y-2.2005
X3.7128Y-2.2478
X3.76Y-2.1533
X3.76Y-2.2005
X3.76Y-2.2478
X3.8072Y-2.1533
X3.8072Y-2.2005
X3.8072Y-2.2478
T3
X3.69Y-2.5
X3.69Y-2.6
X3.79Y-2.5
X3.79Y-2.6
X3.89Y-2.5
X3.89Y-2.6
X3.99Y-2.5
X3.99Y-2.6
T4
X3.5365Y-1.9503
X3.5365Y-2.0503
X3.5365Y-2.1503
X3.5365Y-2.2503
X3.5365Y-2.3503
X3.5365Y-2.4503
X3.5365Y-2.5503
X4.1369Y-1.9503
X4.1369Y-2.0503
X4.1369Y-2.1503
X4.1369Y-2.2503
X4.1369Y-2.3503
X4.1369Y-2.4503
X4.1369Y-2.5503
M30
