%TF.GenerationSoftware,KiCad,Pcbnew,8.0.3*%
%TF.CreationDate,2024-07-22T10:14:54+02:00*%
%TF.ProjectId,Untitled,556e7469-746c-4656-942e-6b696361645f,rev?*%
%TF.SameCoordinates,Original*%
%TF.FileFunction,Legend,Top*%
%TF.FilePolarity,Positive*%
%FSLAX46Y46*%
G04 Gerber Fmt 4.6, Leading zero omitted, Abs format (unit mm)*
G04 Created by KiCad (PCBNEW 8.0.3) date 2024-07-22 10:14:54*
%MOMM*%
%LPD*%
G01*
G04 APERTURE LIST*
%ADD10C,0.150000*%
%ADD11C,0.120000*%
%ADD12C,0.127000*%
%ADD13C,0.254000*%
%ADD14C,0.025400*%
%ADD15C,0.100000*%
G04 APERTURE END LIST*
D10*
X103639580Y-53760666D02*
X103687200Y-53808285D01*
X103687200Y-53808285D02*
X103734819Y-53951142D01*
X103734819Y-53951142D02*
X103734819Y-54046380D01*
X103734819Y-54046380D02*
X103687200Y-54189237D01*
X103687200Y-54189237D02*
X103591961Y-54284475D01*
X103591961Y-54284475D02*
X103496723Y-54332094D01*
X103496723Y-54332094D02*
X103306247Y-54379713D01*
X103306247Y-54379713D02*
X103163390Y-54379713D01*
X103163390Y-54379713D02*
X102972914Y-54332094D01*
X102972914Y-54332094D02*
X102877676Y-54284475D01*
X102877676Y-54284475D02*
X102782438Y-54189237D01*
X102782438Y-54189237D02*
X102734819Y-54046380D01*
X102734819Y-54046380D02*
X102734819Y-53951142D01*
X102734819Y-53951142D02*
X102782438Y-53808285D01*
X102782438Y-53808285D02*
X102830057Y-53760666D01*
X103734819Y-52808285D02*
X103734819Y-53379713D01*
X103734819Y-53093999D02*
X102734819Y-53093999D01*
X102734819Y-53093999D02*
X102877676Y-53189237D01*
X102877676Y-53189237D02*
X102972914Y-53284475D01*
X102972914Y-53284475D02*
X103020533Y-53379713D01*
X101226580Y-48934666D02*
X101274200Y-48982285D01*
X101274200Y-48982285D02*
X101321819Y-49125142D01*
X101321819Y-49125142D02*
X101321819Y-49220380D01*
X101321819Y-49220380D02*
X101274200Y-49363237D01*
X101274200Y-49363237D02*
X101178961Y-49458475D01*
X101178961Y-49458475D02*
X101083723Y-49506094D01*
X101083723Y-49506094D02*
X100893247Y-49553713D01*
X100893247Y-49553713D02*
X100750390Y-49553713D01*
X100750390Y-49553713D02*
X100559914Y-49506094D01*
X100559914Y-49506094D02*
X100464676Y-49458475D01*
X100464676Y-49458475D02*
X100369438Y-49363237D01*
X100369438Y-49363237D02*
X100321819Y-49220380D01*
X100321819Y-49220380D02*
X100321819Y-49125142D01*
X100321819Y-49125142D02*
X100369438Y-48982285D01*
X100369438Y-48982285D02*
X100417057Y-48934666D01*
X100655152Y-48077523D02*
X101321819Y-48077523D01*
X100274200Y-48315618D02*
X100988485Y-48553713D01*
X100988485Y-48553713D02*
X100988485Y-47934666D01*
X104147580Y-48934666D02*
X104195200Y-48982285D01*
X104195200Y-48982285D02*
X104242819Y-49125142D01*
X104242819Y-49125142D02*
X104242819Y-49220380D01*
X104242819Y-49220380D02*
X104195200Y-49363237D01*
X104195200Y-49363237D02*
X104099961Y-49458475D01*
X104099961Y-49458475D02*
X104004723Y-49506094D01*
X104004723Y-49506094D02*
X103814247Y-49553713D01*
X103814247Y-49553713D02*
X103671390Y-49553713D01*
X103671390Y-49553713D02*
X103480914Y-49506094D01*
X103480914Y-49506094D02*
X103385676Y-49458475D01*
X103385676Y-49458475D02*
X103290438Y-49363237D01*
X103290438Y-49363237D02*
X103242819Y-49220380D01*
X103242819Y-49220380D02*
X103242819Y-49125142D01*
X103242819Y-49125142D02*
X103290438Y-48982285D01*
X103290438Y-48982285D02*
X103338057Y-48934666D01*
X103242819Y-48029904D02*
X103242819Y-48506094D01*
X103242819Y-48506094D02*
X103719009Y-48553713D01*
X103719009Y-48553713D02*
X103671390Y-48506094D01*
X103671390Y-48506094D02*
X103623771Y-48410856D01*
X103623771Y-48410856D02*
X103623771Y-48172761D01*
X103623771Y-48172761D02*
X103671390Y-48077523D01*
X103671390Y-48077523D02*
X103719009Y-48029904D01*
X103719009Y-48029904D02*
X103814247Y-47982285D01*
X103814247Y-47982285D02*
X104052342Y-47982285D01*
X104052342Y-47982285D02*
X104147580Y-48029904D01*
X104147580Y-48029904D02*
X104195200Y-48077523D01*
X104195200Y-48077523D02*
X104242819Y-48172761D01*
X104242819Y-48172761D02*
X104242819Y-48410856D01*
X104242819Y-48410856D02*
X104195200Y-48506094D01*
X104195200Y-48506094D02*
X104147580Y-48553713D01*
X93900666Y-60414819D02*
X93900666Y-61129104D01*
X93900666Y-61129104D02*
X93853047Y-61271961D01*
X93853047Y-61271961D02*
X93757809Y-61367200D01*
X93757809Y-61367200D02*
X93614952Y-61414819D01*
X93614952Y-61414819D02*
X93519714Y-61414819D01*
X94900666Y-61414819D02*
X94329238Y-61414819D01*
X94614952Y-61414819D02*
X94614952Y-60414819D01*
X94614952Y-60414819D02*
X94519714Y-60557676D01*
X94519714Y-60557676D02*
X94424476Y-60652914D01*
X94424476Y-60652914D02*
X94329238Y-60700533D01*
X95130580Y-48908166D02*
X95178200Y-48955785D01*
X95178200Y-48955785D02*
X95225819Y-49098642D01*
X95225819Y-49098642D02*
X95225819Y-49193880D01*
X95225819Y-49193880D02*
X95178200Y-49336737D01*
X95178200Y-49336737D02*
X95082961Y-49431975D01*
X95082961Y-49431975D02*
X94987723Y-49479594D01*
X94987723Y-49479594D02*
X94797247Y-49527213D01*
X94797247Y-49527213D02*
X94654390Y-49527213D01*
X94654390Y-49527213D02*
X94463914Y-49479594D01*
X94463914Y-49479594D02*
X94368676Y-49431975D01*
X94368676Y-49431975D02*
X94273438Y-49336737D01*
X94273438Y-49336737D02*
X94225819Y-49193880D01*
X94225819Y-49193880D02*
X94225819Y-49098642D01*
X94225819Y-49098642D02*
X94273438Y-48955785D01*
X94273438Y-48955785D02*
X94321057Y-48908166D01*
X94225819Y-48574832D02*
X94225819Y-47955785D01*
X94225819Y-47955785D02*
X94606771Y-48289118D01*
X94606771Y-48289118D02*
X94606771Y-48146261D01*
X94606771Y-48146261D02*
X94654390Y-48051023D01*
X94654390Y-48051023D02*
X94702009Y-48003404D01*
X94702009Y-48003404D02*
X94797247Y-47955785D01*
X94797247Y-47955785D02*
X95035342Y-47955785D01*
X95035342Y-47955785D02*
X95130580Y-48003404D01*
X95130580Y-48003404D02*
X95178200Y-48051023D01*
X95178200Y-48051023D02*
X95225819Y-48146261D01*
X95225819Y-48146261D02*
X95225819Y-48431975D01*
X95225819Y-48431975D02*
X95178200Y-48527213D01*
X95178200Y-48527213D02*
X95130580Y-48574832D01*
X98178580Y-48908166D02*
X98226200Y-48955785D01*
X98226200Y-48955785D02*
X98273819Y-49098642D01*
X98273819Y-49098642D02*
X98273819Y-49193880D01*
X98273819Y-49193880D02*
X98226200Y-49336737D01*
X98226200Y-49336737D02*
X98130961Y-49431975D01*
X98130961Y-49431975D02*
X98035723Y-49479594D01*
X98035723Y-49479594D02*
X97845247Y-49527213D01*
X97845247Y-49527213D02*
X97702390Y-49527213D01*
X97702390Y-49527213D02*
X97511914Y-49479594D01*
X97511914Y-49479594D02*
X97416676Y-49431975D01*
X97416676Y-49431975D02*
X97321438Y-49336737D01*
X97321438Y-49336737D02*
X97273819Y-49193880D01*
X97273819Y-49193880D02*
X97273819Y-49098642D01*
X97273819Y-49098642D02*
X97321438Y-48955785D01*
X97321438Y-48955785D02*
X97369057Y-48908166D01*
X97273819Y-48051023D02*
X97273819Y-48241499D01*
X97273819Y-48241499D02*
X97321438Y-48336737D01*
X97321438Y-48336737D02*
X97369057Y-48384356D01*
X97369057Y-48384356D02*
X97511914Y-48479594D01*
X97511914Y-48479594D02*
X97702390Y-48527213D01*
X97702390Y-48527213D02*
X98083342Y-48527213D01*
X98083342Y-48527213D02*
X98178580Y-48479594D01*
X98178580Y-48479594D02*
X98226200Y-48431975D01*
X98226200Y-48431975D02*
X98273819Y-48336737D01*
X98273819Y-48336737D02*
X98273819Y-48146261D01*
X98273819Y-48146261D02*
X98226200Y-48051023D01*
X98226200Y-48051023D02*
X98178580Y-48003404D01*
X98178580Y-48003404D02*
X98083342Y-47955785D01*
X98083342Y-47955785D02*
X97845247Y-47955785D01*
X97845247Y-47955785D02*
X97750009Y-48003404D01*
X97750009Y-48003404D02*
X97702390Y-48051023D01*
X97702390Y-48051023D02*
X97654771Y-48146261D01*
X97654771Y-48146261D02*
X97654771Y-48336737D01*
X97654771Y-48336737D02*
X97702390Y-48431975D01*
X97702390Y-48431975D02*
X97750009Y-48479594D01*
X97750009Y-48479594D02*
X97845247Y-48527213D01*
X94742095Y-51517819D02*
X94742095Y-52327342D01*
X94742095Y-52327342D02*
X94789714Y-52422580D01*
X94789714Y-52422580D02*
X94837333Y-52470200D01*
X94837333Y-52470200D02*
X94932571Y-52517819D01*
X94932571Y-52517819D02*
X95123047Y-52517819D01*
X95123047Y-52517819D02*
X95218285Y-52470200D01*
X95218285Y-52470200D02*
X95265904Y-52422580D01*
X95265904Y-52422580D02*
X95313523Y-52327342D01*
X95313523Y-52327342D02*
X95313523Y-51517819D01*
X95742095Y-51613057D02*
X95789714Y-51565438D01*
X95789714Y-51565438D02*
X95884952Y-51517819D01*
X95884952Y-51517819D02*
X96123047Y-51517819D01*
X96123047Y-51517819D02*
X96218285Y-51565438D01*
X96218285Y-51565438D02*
X96265904Y-51613057D01*
X96265904Y-51613057D02*
X96313523Y-51708295D01*
X96313523Y-51708295D02*
X96313523Y-51803533D01*
X96313523Y-51803533D02*
X96265904Y-51946390D01*
X96265904Y-51946390D02*
X95694476Y-52517819D01*
X95694476Y-52517819D02*
X96313523Y-52517819D01*
X100279580Y-58332666D02*
X100327200Y-58380285D01*
X100327200Y-58380285D02*
X100374819Y-58523142D01*
X100374819Y-58523142D02*
X100374819Y-58618380D01*
X100374819Y-58618380D02*
X100327200Y-58761237D01*
X100327200Y-58761237D02*
X100231961Y-58856475D01*
X100231961Y-58856475D02*
X100136723Y-58904094D01*
X100136723Y-58904094D02*
X99946247Y-58951713D01*
X99946247Y-58951713D02*
X99803390Y-58951713D01*
X99803390Y-58951713D02*
X99612914Y-58904094D01*
X99612914Y-58904094D02*
X99517676Y-58856475D01*
X99517676Y-58856475D02*
X99422438Y-58761237D01*
X99422438Y-58761237D02*
X99374819Y-58618380D01*
X99374819Y-58618380D02*
X99374819Y-58523142D01*
X99374819Y-58523142D02*
X99422438Y-58380285D01*
X99422438Y-58380285D02*
X99470057Y-58332666D01*
X99470057Y-57951713D02*
X99422438Y-57904094D01*
X99422438Y-57904094D02*
X99374819Y-57808856D01*
X99374819Y-57808856D02*
X99374819Y-57570761D01*
X99374819Y-57570761D02*
X99422438Y-57475523D01*
X99422438Y-57475523D02*
X99470057Y-57427904D01*
X99470057Y-57427904D02*
X99565295Y-57380285D01*
X99565295Y-57380285D02*
X99660533Y-57380285D01*
X99660533Y-57380285D02*
X99803390Y-57427904D01*
X99803390Y-57427904D02*
X100374819Y-57999332D01*
X100374819Y-57999332D02*
X100374819Y-57380285D01*
D11*
%TO.C,C1*%
X100865000Y-53332748D02*
X100865000Y-53855252D01*
X102335000Y-53332748D02*
X102335000Y-53855252D01*
%TO.C,C4*%
X98452000Y-48506748D02*
X98452000Y-49029252D01*
X99922000Y-48506748D02*
X99922000Y-49029252D01*
%TO.C,C5*%
X101373000Y-48506748D02*
X101373000Y-49029252D01*
X102843000Y-48506748D02*
X102843000Y-49029252D01*
D12*
%TO.C,U1*%
X88551500Y-48657590D02*
X88551500Y-65657590D01*
X90551500Y-67657590D02*
X104351500Y-67657590D01*
X104351500Y-46658500D02*
X90551500Y-46658500D01*
X106351500Y-65657590D02*
X106351500Y-48657590D01*
D11*
X88551500Y-48657590D02*
G75*
G02*
X90551500Y-46657590I2044612J-44612D01*
G01*
X90551500Y-67657590D02*
G75*
G02*
X88551500Y-65657590I44857J2044857D01*
G01*
X104351500Y-46657590D02*
G75*
G02*
X106351500Y-48657590I-44600J-2044600D01*
G01*
X106351500Y-65657590D02*
G75*
G02*
X104351500Y-67657590I-2000000J0D01*
G01*
D13*
X86578500Y-48357590D02*
G75*
G02*
X86324500Y-48357590I-127000J0D01*
G01*
X86324500Y-48357590D02*
G75*
G02*
X86578500Y-48357590I127000J0D01*
G01*
D14*
X88563785Y-48595885D02*
X88566833Y-48547117D01*
X88570897Y-48498096D01*
X88563785Y-48595885D01*
X106339213Y-65728440D02*
X106336165Y-65777208D01*
X106332101Y-65826229D01*
X106326768Y-65874997D01*
X106320164Y-65923765D01*
X106312544Y-65972280D01*
X106303653Y-66020540D01*
X106293748Y-66068545D01*
X106340992Y-65679164D01*
X106339213Y-65728440D01*
%TO.C,J1*%
D15*
X92202000Y-61976000D02*
X102870000Y-61976000D01*
X102870000Y-67564000D01*
X92202000Y-67564000D01*
X92202000Y-61976000D01*
D11*
%TO.C,C3*%
X92356000Y-48480248D02*
X92356000Y-49002752D01*
X93826000Y-48480248D02*
X93826000Y-49002752D01*
%TO.C,C6*%
X95404000Y-48480248D02*
X95404000Y-49002752D01*
X96874000Y-48480248D02*
X96874000Y-49002752D01*
%TO.C,U2*%
X92894000Y-53758000D02*
X92894000Y-53523000D01*
X92894000Y-58503000D02*
X92894000Y-58028000D01*
X93369000Y-53283000D02*
X93194000Y-53283000D01*
X93369000Y-58503000D02*
X92894000Y-58503000D01*
X97639000Y-53283000D02*
X98114000Y-53283000D01*
X97639000Y-58503000D02*
X98114000Y-58503000D01*
X98114000Y-53283000D02*
X98114000Y-53758000D01*
X98114000Y-58503000D02*
X98114000Y-58028000D01*
X92894000Y-53283000D02*
X92654000Y-52953000D01*
X93134000Y-52953000D01*
X92894000Y-53283000D01*
G36*
X92894000Y-53283000D02*
G01*
X92654000Y-52953000D01*
X93134000Y-52953000D01*
X92894000Y-53283000D01*
G37*
%TO.C,C2*%
X100865000Y-58427252D02*
X100865000Y-57904748D01*
X102335000Y-58427252D02*
X102335000Y-57904748D01*
%TD*%
M02*
