%TF.GenerationSoftware,KiCad,Pcbnew,8.0.3*%
%TF.CreationDate,2024-07-22T10:14:54+02:00*%
%TF.ProjectId,Untitled,556e7469-746c-4656-942e-6b696361645f,rev?*%
%TF.SameCoordinates,Original*%
%TF.FileFunction,Copper,L1,Top*%
%TF.FilePolarity,Positive*%
%FSLAX46Y46*%
G04 Gerber Fmt 4.6, Leading zero omitted, Abs format (unit mm)*
G04 Created by KiCad (PCBNEW 8.0.3) date 2024-07-22 10:14:54*
%MOMM*%
%LPD*%
G01*
G04 APERTURE LIST*
G04 Aperture macros list*
%AMRoundRect*
0 Rectangle with rounded corners*
0 $1 Rounding radius*
0 $2 $3 $4 $5 $6 $7 $8 $9 X,Y pos of 4 corners*
0 Add a 4 corners polygon primitive as box body*
4,1,4,$2,$3,$4,$5,$6,$7,$8,$9,$2,$3,0*
0 Add four circle primitives for the rounded corners*
1,1,$1+$1,$2,$3*
1,1,$1+$1,$4,$5*
1,1,$1+$1,$6,$7*
1,1,$1+$1,$8,$9*
0 Add four rect primitives between the rounded corners*
20,1,$1+$1,$2,$3,$4,$5,0*
20,1,$1+$1,$4,$5,$6,$7,0*
20,1,$1+$1,$6,$7,$8,$9,0*
20,1,$1+$1,$8,$9,$2,$3,0*%
G04 Aperture macros list end*
%TA.AperFunction,SMDPad,CuDef*%
%ADD10RoundRect,0.250000X-0.475000X0.337500X-0.475000X-0.337500X0.475000X-0.337500X0.475000X0.337500X0*%
%TD*%
%TA.AperFunction,ComponentPad*%
%ADD11R,1.700000X1.700000*%
%TD*%
%TA.AperFunction,ComponentPad*%
%ADD12C,1.700000*%
%TD*%
%TA.AperFunction,ComponentPad*%
%ADD13R,1.600000X1.600000*%
%TD*%
%TA.AperFunction,ComponentPad*%
%ADD14O,1.600000X1.600000*%
%TD*%
%TA.AperFunction,SMDPad,CuDef*%
%ADD15RoundRect,0.062500X-0.375000X-0.062500X0.375000X-0.062500X0.375000X0.062500X-0.375000X0.062500X0*%
%TD*%
%TA.AperFunction,SMDPad,CuDef*%
%ADD16RoundRect,0.062500X-0.062500X-0.375000X0.062500X-0.375000X0.062500X0.375000X-0.062500X0.375000X0*%
%TD*%
%TA.AperFunction,HeatsinkPad*%
%ADD17C,0.630000*%
%TD*%
%TA.AperFunction,HeatsinkPad*%
%ADD18R,3.100000X3.100000*%
%TD*%
%TA.AperFunction,SMDPad,CuDef*%
%ADD19RoundRect,0.250000X0.475000X-0.337500X0.475000X0.337500X-0.475000X0.337500X-0.475000X-0.337500X0*%
%TD*%
%TA.AperFunction,ViaPad*%
%ADD20C,0.600000*%
%TD*%
%TA.AperFunction,Conductor*%
%ADD21C,0.200000*%
%TD*%
%TA.AperFunction,Conductor*%
%ADD22C,0.400000*%
%TD*%
G04 APERTURE END LIST*
D10*
%TO.P,C1,1*%
%TO.N,GND*%
X101600000Y-52556500D03*
%TO.P,C1,2*%
%TO.N,Net-(U2-AVDD)*%
X101600000Y-54631500D03*
%TD*%
%TO.P,C4,1*%
%TO.N,GND*%
X99187000Y-47730500D03*
%TO.P,C4,2*%
%TO.N,3V3*%
X99187000Y-49805500D03*
%TD*%
%TO.P,C5,1*%
%TO.N,GND*%
X102108000Y-47730500D03*
%TO.P,C5,2*%
%TO.N,3V3*%
X102108000Y-49805500D03*
%TD*%
D11*
%TO.P,U1,1,P0.02_A0_D0*%
%TO.N,MCLK*%
X89826500Y-49537590D03*
D12*
%TO.P,U1,2,P0.03_A1_D1*%
%TO.N,BCLK*%
X89826500Y-52077590D03*
%TO.P,U1,3,P0.28_A2_D2*%
%TO.N,WCLK*%
X89826500Y-54617590D03*
%TO.P,U1,4,P0.29_A3_D3*%
%TO.N,DIN*%
X89826500Y-57157590D03*
%TO.P,U1,5,P0.04_A4_D4_SDA*%
%TO.N,DOUT*%
X89826500Y-59697590D03*
%TO.P,U1,6,P0.05_A5_D5_SCL*%
%TO.N,SCL*%
X89826500Y-62237590D03*
%TO.P,U1,7,P1.11_D6_TX*%
%TO.N,SDA*%
X89826500Y-64777590D03*
%TO.P,U1,8,P1.12_D7_RX*%
%TO.N,unconnected-(U1-P1.12_D7_RX-Pad8)*%
X105076500Y-64777590D03*
%TO.P,U1,9,P1.13_D8_SCK*%
%TO.N,unconnected-(U1-P1.13_D8_SCK-Pad9)*%
X105076500Y-62237590D03*
%TO.P,U1,10,P1.14_D9_MISO*%
%TO.N,unconnected-(U1-P1.14_D9_MISO-Pad10)*%
X105076500Y-59697590D03*
%TO.P,U1,11,P1.15_D10_MOSI*%
%TO.N,~{RESET}*%
X105076500Y-57157590D03*
%TO.P,U1,12,3V3*%
%TO.N,3V3*%
X105076500Y-54617590D03*
%TO.P,U1,13,GND*%
%TO.N,GND*%
X105076500Y-52077590D03*
%TO.P,U1,14,5V*%
%TO.N,unconnected-(U1-5V-Pad14)*%
X105076500Y-49537590D03*
%TD*%
D13*
%TO.P,J1,1,IN1_R*%
%TO.N,IN1_R*%
X93726000Y-66040000D03*
D14*
%TO.P,J1,2,IN2_R*%
%TO.N,IN2_R*%
X96266000Y-66040000D03*
%TO.P,J1,3,MICBIAS*%
%TO.N,MICBIAS*%
X98806000Y-66040000D03*
%TO.P,J1,4,HPR*%
%TO.N,HPR*%
X101346000Y-66040000D03*
%TO.P,J1,5,HPL*%
%TO.N,HPL*%
X101346000Y-63500000D03*
%TO.P,J1,6,GND*%
%TO.N,GND*%
X98806000Y-63500000D03*
%TO.P,J1,7,IN2_L*%
%TO.N,IN2_L*%
X96266000Y-63500000D03*
%TO.P,J1,8,IN1_L*%
%TO.N,IN1_L*%
X93726000Y-63500000D03*
%TD*%
D10*
%TO.P,C3,1*%
%TO.N,GND*%
X93091000Y-47704000D03*
%TO.P,C3,2*%
%TO.N,Net-(U2-DVDD)*%
X93091000Y-49779000D03*
%TD*%
%TO.P,C6,1*%
%TO.N,GND*%
X96139000Y-47704000D03*
%TO.P,C6,2*%
%TO.N,3V3*%
X96139000Y-49779000D03*
%TD*%
D15*
%TO.P,U2,1,MCLK*%
%TO.N,MCLK*%
X93066500Y-54143000D03*
%TO.P,U2,2,BCLK*%
%TO.N,BCLK*%
X93066500Y-54643000D03*
%TO.P,U2,3,WCLK*%
%TO.N,WCLK*%
X93066500Y-55143000D03*
%TO.P,U2,4,DIN/MFP1*%
%TO.N,DIN*%
X93066500Y-55643000D03*
%TO.P,U2,5,DOUT/MFP2*%
%TO.N,DOUT*%
X93066500Y-56143000D03*
%TO.P,U2,6,IOVDD*%
%TO.N,3V3*%
X93066500Y-56643000D03*
%TO.P,U2,7,IOVSS*%
%TO.N,GND*%
X93066500Y-57143000D03*
%TO.P,U2,8,SCLK/MFP3*%
%TO.N,unconnected-(U2-SCLK{slash}MFP3-Pad8)*%
X93066500Y-57643000D03*
D16*
%TO.P,U2,9,SCL/SSZ*%
%TO.N,SCL*%
X93754000Y-58330500D03*
%TO.P,U2,10,SDA/MOSI*%
%TO.N,SDA*%
X94254000Y-58330500D03*
%TO.P,U2,11,MISO/MFP4*%
%TO.N,unconnected-(U2-MISO{slash}MFP4-Pad11)*%
X94754000Y-58330500D03*
%TO.P,U2,12,SPI_SELECT*%
%TO.N,GND*%
X95254000Y-58330500D03*
%TO.P,U2,13,IN1_L*%
%TO.N,IN1_L*%
X95754000Y-58330500D03*
%TO.P,U2,14,IN1_R*%
%TO.N,IN1_R*%
X96254000Y-58330500D03*
%TO.P,U2,15,IN2_L*%
%TO.N,IN2_L*%
X96754000Y-58330500D03*
%TO.P,U2,16,IN2_R*%
%TO.N,IN2_R*%
X97254000Y-58330500D03*
D15*
%TO.P,U2,17,AVSS*%
%TO.N,GND*%
X97941500Y-57643000D03*
%TO.P,U2,18,REF*%
%TO.N,Net-(U2-REF)*%
X97941500Y-57143000D03*
%TO.P,U2,19,MICBIAS*%
%TO.N,MICBIAS*%
X97941500Y-56643000D03*
%TO.P,U2,20,IN3_L*%
%TO.N,GND*%
X97941500Y-56143000D03*
%TO.P,U2,21,IN3_R*%
X97941500Y-55643000D03*
%TO.P,U2,22,LOL*%
%TO.N,unconnected-(U2-LOL-Pad22)*%
X97941500Y-55143000D03*
%TO.P,U2,23,LOR*%
%TO.N,unconnected-(U2-LOR-Pad23)*%
X97941500Y-54643000D03*
%TO.P,U2,24,AVDD*%
%TO.N,Net-(U2-AVDD)*%
X97941500Y-54143000D03*
D16*
%TO.P,U2,25,HPL*%
%TO.N,HPL*%
X97254000Y-53455500D03*
%TO.P,U2,26,LDOIN*%
%TO.N,3V3*%
X96754000Y-53455500D03*
%TO.P,U2,27,HPR*%
%TO.N,HPR*%
X96254000Y-53455500D03*
%TO.P,U2,28,DVSS*%
%TO.N,GND*%
X95754000Y-53455500D03*
%TO.P,U2,29,DVDD*%
%TO.N,Net-(U2-DVDD)*%
X95254000Y-53455500D03*
%TO.P,U2,30,LDO_SELECT*%
%TO.N,3V3*%
X94754000Y-53455500D03*
%TO.P,U2,31,~{RESET}*%
%TO.N,~{RESET}*%
X94254000Y-53455500D03*
%TO.P,U2,32,GPIO/MFP5*%
%TO.N,unconnected-(U2-GPIO{slash}MFP5-Pad32)*%
X93754000Y-53455500D03*
D17*
%TO.P,U2,33,THERMAL*%
%TO.N,GND*%
X94304000Y-54693000D03*
X94304000Y-55893000D03*
X94304000Y-57093000D03*
X95504000Y-54693000D03*
X95504000Y-55893000D03*
D18*
X95504000Y-55893000D03*
D17*
X95504000Y-57093000D03*
X96704000Y-54693000D03*
X96704000Y-55893000D03*
X96704000Y-57093000D03*
%TD*%
D19*
%TO.P,C2,1*%
%TO.N,GND*%
X101600000Y-59203500D03*
%TO.P,C2,2*%
%TO.N,Net-(U2-REF)*%
X101600000Y-57128500D03*
%TD*%
D20*
%TO.N,GND*%
X98298000Y-60198000D03*
X103378000Y-55880000D03*
X97790000Y-48768000D03*
X98552000Y-53086000D03*
X103632000Y-66294000D03*
X91186000Y-47752000D03*
X103124000Y-61214000D03*
X93726000Y-61214000D03*
X91440000Y-66040000D03*
X100838000Y-51054000D03*
X96012000Y-61214000D03*
X104394000Y-47752000D03*
%TO.N,3V3*%
X94742000Y-48768000D03*
X91694000Y-59182000D03*
X94081600Y-51308000D03*
%TO.N,~{RESET}*%
X93675200Y-52070000D03*
%TO.N,HPL*%
X97637600Y-52120800D03*
%TO.N,HPR*%
X95961200Y-52120800D03*
%TO.N,MICBIAS*%
X99364800Y-56184800D03*
%TD*%
D21*
%TO.N,GND*%
X96704000Y-57093000D02*
X97204000Y-57593000D01*
X95254000Y-58330500D02*
X95254000Y-57343000D01*
X103682800Y-48260000D02*
X103682800Y-50683890D01*
X96954000Y-55643000D02*
X96704000Y-55893000D01*
X98806000Y-63500000D02*
X98806000Y-61997500D01*
X103153300Y-47730500D02*
X103682800Y-48260000D01*
X97941500Y-55643000D02*
X96954000Y-55643000D01*
X95254000Y-57343000D02*
X95504000Y-57093000D01*
X93066500Y-57143000D02*
X94254000Y-57143000D01*
X95754000Y-53455500D02*
X95754000Y-54443000D01*
X96954000Y-56143000D02*
X96704000Y-55893000D01*
X94254000Y-57143000D02*
X94304000Y-57093000D01*
X97941500Y-56143000D02*
X96954000Y-56143000D01*
X96314000Y-47704000D02*
X96340500Y-47730500D01*
X97941500Y-57643000D02*
X100039500Y-57643000D01*
X99187000Y-47730500D02*
X102108000Y-47730500D01*
X95754000Y-54443000D02*
X95504000Y-54693000D01*
X103682800Y-50683890D02*
X105076500Y-52077590D01*
X98806000Y-61997500D02*
X101600000Y-59203500D01*
X97891500Y-57593000D02*
X97941500Y-57643000D01*
X96139000Y-47704000D02*
X96314000Y-47704000D01*
X102108000Y-47730500D02*
X103153300Y-47730500D01*
X97204000Y-57593000D02*
X97891500Y-57593000D01*
X100039500Y-57643000D02*
X101600000Y-59203500D01*
X93091000Y-47704000D02*
X96139000Y-47704000D01*
X96340500Y-47730500D02*
X99187000Y-47730500D01*
%TO.N,3V3*%
X96165500Y-49805500D02*
X96139000Y-49779000D01*
X96754000Y-50394000D02*
X96139000Y-49779000D01*
X91840000Y-57417614D02*
X92614614Y-56643000D01*
X91694000Y-59182000D02*
X91840000Y-59036000D01*
D22*
X103378000Y-51562000D02*
X102108000Y-50292000D01*
X105076500Y-54435756D02*
X103378000Y-52737256D01*
D21*
X102108000Y-50292000D02*
X102108000Y-49805500D01*
D22*
X102108000Y-49805500D02*
X99187000Y-49805500D01*
D21*
X91840000Y-59036000D02*
X91840000Y-57417614D01*
X105076500Y-54617590D02*
X105076500Y-54435756D01*
X95128000Y-48768000D02*
X96165500Y-49805500D01*
X94754000Y-51980400D02*
X94754000Y-53455500D01*
D22*
X99187000Y-49805500D02*
X96165500Y-49805500D01*
D21*
X94742000Y-48768000D02*
X95128000Y-48768000D01*
X94081600Y-51308000D02*
X94754000Y-51980400D01*
X92614614Y-56643000D02*
X93066500Y-56643000D01*
X96754000Y-53455500D02*
X96754000Y-50394000D01*
D22*
X103378000Y-52737256D02*
X103378000Y-51562000D01*
D21*
%TO.N,SDA*%
X91186000Y-62541686D02*
X91186000Y-63418090D01*
X94254000Y-58330500D02*
X94254000Y-59473686D01*
X94254000Y-59473686D02*
X91186000Y-62541686D01*
X91186000Y-63418090D02*
X89826500Y-64777590D01*
%TO.N,SCL*%
X93754000Y-59408000D02*
X90924410Y-62237590D01*
X93754000Y-58330500D02*
X93754000Y-59408000D01*
X90924410Y-62237590D02*
X89826500Y-62237590D01*
%TO.N,Net-(U2-AVDD)*%
X97941500Y-54143000D02*
X101111500Y-54143000D01*
X101111500Y-54143000D02*
X101600000Y-54631500D01*
X101098500Y-54130000D02*
X101600000Y-54631500D01*
%TO.N,Net-(U2-REF)*%
X101585500Y-57143000D02*
X101600000Y-57128500D01*
X97941500Y-57143000D02*
X101585500Y-57143000D01*
%TO.N,Net-(U2-DVDD)*%
X95250000Y-52578000D02*
X95254000Y-52582000D01*
X93721000Y-49779000D02*
X95250000Y-51308000D01*
X95254000Y-52582000D02*
X95254000Y-53455500D01*
X93091000Y-49779000D02*
X93721000Y-49779000D01*
X95250000Y-51308000D02*
X95250000Y-52578000D01*
%TO.N,MCLK*%
X93066500Y-54143000D02*
X93066500Y-52777590D01*
X93066500Y-52777590D02*
X89826500Y-49537590D01*
%TO.N,WCLK*%
X90351910Y-55143000D02*
X89826500Y-54617590D01*
X93066500Y-55143000D02*
X90351910Y-55143000D01*
%TO.N,~{RESET}*%
X94254000Y-53455500D02*
X94254000Y-52648800D01*
X94254000Y-52648800D02*
X93675200Y-52070000D01*
%TO.N,BCLK*%
X93066500Y-54643000D02*
X92391910Y-54643000D01*
X92391910Y-54643000D02*
X89826500Y-52077590D01*
%TO.N,DIN*%
X91341090Y-55643000D02*
X89826500Y-57157590D01*
X93066500Y-55643000D02*
X91341090Y-55643000D01*
%TO.N,DOUT*%
X91440000Y-58084090D02*
X89826500Y-59697590D01*
X92360471Y-56143000D02*
X91440000Y-57063471D01*
X93066500Y-56143000D02*
X92360471Y-56143000D01*
X91440000Y-57063471D02*
X91440000Y-58084090D01*
%TO.N,HPL*%
X97254000Y-52504400D02*
X97637600Y-52120800D01*
X97254000Y-53455500D02*
X97254000Y-52504400D01*
%TO.N,HPR*%
X96254000Y-53455500D02*
X96254000Y-52413600D01*
X96254000Y-52413600D02*
X95961200Y-52120800D01*
%TO.N,MICBIAS*%
X97941500Y-56643000D02*
X98906600Y-56643000D01*
X98906600Y-56643000D02*
X99364800Y-56184800D01*
%TO.N,IN2_L*%
X96754000Y-58330500D02*
X96754000Y-62013685D01*
X97028000Y-62738000D02*
X96266000Y-63500000D01*
X96754000Y-62013685D02*
X97028000Y-62287685D01*
X97028000Y-62287685D02*
X97028000Y-62738000D01*
%TO.N,IN2_R*%
X97254000Y-61948000D02*
X97536000Y-62230000D01*
X97536000Y-64770000D02*
X96266000Y-66040000D01*
X97536000Y-62230000D02*
X97536000Y-64770000D01*
X97254000Y-58330500D02*
X97254000Y-61948000D01*
%TO.N,IN1_R*%
X96254000Y-59702000D02*
X94996000Y-60960000D01*
X96254000Y-58330500D02*
X96254000Y-59702000D01*
X94996000Y-60960000D02*
X94996000Y-64770000D01*
X94996000Y-64770000D02*
X93726000Y-66040000D01*
%TO.N,IN1_L*%
X95754000Y-58330500D02*
X95754000Y-59636314D01*
X95754000Y-59636314D02*
X94596000Y-60794314D01*
X94596000Y-60794314D02*
X94596000Y-62630000D01*
X94596000Y-62630000D02*
X93726000Y-63500000D01*
%TD*%
%TA.AperFunction,Conductor*%
%TO.N,GND*%
G36*
X93914833Y-60764601D02*
G01*
X93970766Y-60806473D01*
X93991958Y-60863290D01*
X93993812Y-60862982D01*
X93993813Y-60862988D01*
X93994374Y-60869768D01*
X93995183Y-60871937D01*
X93995499Y-60880783D01*
X93995499Y-60883360D01*
X93995500Y-60883373D01*
X93995500Y-62082788D01*
X93975815Y-62149827D01*
X93923011Y-62195582D01*
X93860693Y-62206316D01*
X93726002Y-62194532D01*
X93725998Y-62194532D01*
X93499313Y-62214364D01*
X93499302Y-62214366D01*
X93279511Y-62273258D01*
X93279502Y-62273261D01*
X93073267Y-62369431D01*
X93073265Y-62369432D01*
X92886858Y-62499954D01*
X92725954Y-62660858D01*
X92595432Y-62847265D01*
X92595431Y-62847267D01*
X92499261Y-63053502D01*
X92499258Y-63053511D01*
X92440366Y-63273302D01*
X92440364Y-63273313D01*
X92420532Y-63499998D01*
X92420532Y-63500001D01*
X92440364Y-63726686D01*
X92440366Y-63726697D01*
X92499258Y-63946488D01*
X92499261Y-63946497D01*
X92595431Y-64152732D01*
X92595432Y-64152734D01*
X92725954Y-64339141D01*
X92886858Y-64500045D01*
X92911462Y-64517273D01*
X92955087Y-64571849D01*
X92962281Y-64641348D01*
X92930758Y-64703703D01*
X92870529Y-64739117D01*
X92853593Y-64742138D01*
X92818516Y-64745908D01*
X92683671Y-64796202D01*
X92683664Y-64796206D01*
X92568455Y-64882452D01*
X92568452Y-64882455D01*
X92482206Y-64997664D01*
X92482202Y-64997671D01*
X92431908Y-65132517D01*
X92425501Y-65192116D01*
X92425500Y-65192135D01*
X92425500Y-66887870D01*
X92425501Y-66887876D01*
X92431908Y-66947483D01*
X92436477Y-66959731D01*
X92441461Y-67029423D01*
X92407976Y-67090746D01*
X92346653Y-67124230D01*
X92320295Y-67127064D01*
X90384170Y-67127064D01*
X90384141Y-67127062D01*
X90375518Y-67127062D01*
X90367776Y-67127062D01*
X90314497Y-67127063D01*
X90304769Y-67126681D01*
X90119509Y-67112105D01*
X90100289Y-67109061D01*
X89924350Y-67066824D01*
X89905844Y-67060811D01*
X89738666Y-66991565D01*
X89721329Y-66982732D01*
X89567051Y-66888192D01*
X89551308Y-66876754D01*
X89413717Y-66759240D01*
X89399959Y-66745482D01*
X89341202Y-66676686D01*
X89282444Y-66607889D01*
X89271007Y-66592148D01*
X89265614Y-66583348D01*
X89176465Y-66437867D01*
X89167634Y-66420533D01*
X89098388Y-66253355D01*
X89092377Y-66234854D01*
X89068726Y-66136335D01*
X89072217Y-66066553D01*
X89112882Y-66009736D01*
X89177809Y-65983924D01*
X89241704Y-65995007D01*
X89362837Y-66051493D01*
X89591092Y-66112653D01*
X89779418Y-66129129D01*
X89826499Y-66133249D01*
X89826500Y-66133249D01*
X89826501Y-66133249D01*
X89865734Y-66129816D01*
X90061908Y-66112653D01*
X90290163Y-66051493D01*
X90504330Y-65951625D01*
X90697901Y-65816085D01*
X90864995Y-65648991D01*
X91000535Y-65455420D01*
X91100403Y-65241253D01*
X91161563Y-65012998D01*
X91182159Y-64777590D01*
X91161563Y-64542182D01*
X91127171Y-64413829D01*
X91128834Y-64343983D01*
X91159263Y-64294060D01*
X91544506Y-63908818D01*
X91544511Y-63908814D01*
X91554714Y-63898610D01*
X91554716Y-63898610D01*
X91666520Y-63786806D01*
X91745577Y-63649874D01*
X91786500Y-63497147D01*
X91786500Y-62841782D01*
X91806185Y-62774743D01*
X91822814Y-62754106D01*
X93783818Y-60793101D01*
X93845141Y-60759617D01*
X93914833Y-60764601D01*
G37*
%TD.AperFunction*%
%TA.AperFunction,Conductor*%
G36*
X102901639Y-53252261D02*
G01*
X102909867Y-53259781D01*
X103752273Y-54102186D01*
X103785758Y-54163509D01*
X103784367Y-54221960D01*
X103741438Y-54382176D01*
X103741436Y-54382186D01*
X103720841Y-54617589D01*
X103720841Y-54617590D01*
X103741436Y-54852993D01*
X103741438Y-54853003D01*
X103802594Y-55081245D01*
X103802596Y-55081249D01*
X103802597Y-55081253D01*
X103877741Y-55242400D01*
X103902465Y-55295420D01*
X103902467Y-55295424D01*
X104003901Y-55440285D01*
X104031347Y-55479483D01*
X104038001Y-55488985D01*
X104038006Y-55488992D01*
X104205097Y-55656083D01*
X104205103Y-55656088D01*
X104390658Y-55786015D01*
X104434283Y-55840592D01*
X104441477Y-55910090D01*
X104409954Y-55972445D01*
X104390658Y-55989165D01*
X104205097Y-56119095D01*
X104038005Y-56286187D01*
X103902465Y-56479759D01*
X103902464Y-56479761D01*
X103802598Y-56693925D01*
X103802594Y-56693934D01*
X103741438Y-56922176D01*
X103741436Y-56922186D01*
X103720841Y-57157589D01*
X103720841Y-57157590D01*
X103741436Y-57392993D01*
X103741438Y-57393003D01*
X103802594Y-57621245D01*
X103802596Y-57621249D01*
X103802597Y-57621253D01*
X103880082Y-57787419D01*
X103902465Y-57835420D01*
X103902467Y-57835424D01*
X104038001Y-58028985D01*
X104038006Y-58028992D01*
X104205097Y-58196083D01*
X104205103Y-58196088D01*
X104390658Y-58326015D01*
X104434283Y-58380592D01*
X104441477Y-58450090D01*
X104409954Y-58512445D01*
X104390658Y-58529165D01*
X104205097Y-58659095D01*
X104038005Y-58826187D01*
X103902465Y-59019759D01*
X103902464Y-59019761D01*
X103802598Y-59233925D01*
X103802594Y-59233934D01*
X103741438Y-59462176D01*
X103741436Y-59462186D01*
X103720841Y-59697589D01*
X103720841Y-59697590D01*
X103741436Y-59932993D01*
X103741438Y-59933003D01*
X103802594Y-60161245D01*
X103802596Y-60161249D01*
X103802597Y-60161253D01*
X103858206Y-60280506D01*
X103902465Y-60375420D01*
X103902467Y-60375424D01*
X104038001Y-60568985D01*
X104038006Y-60568992D01*
X104205097Y-60736083D01*
X104205103Y-60736088D01*
X104390658Y-60866015D01*
X104434283Y-60920592D01*
X104441477Y-60990090D01*
X104409954Y-61052445D01*
X104390658Y-61069165D01*
X104205097Y-61199095D01*
X104038005Y-61366187D01*
X103902465Y-61559759D01*
X103902464Y-61559761D01*
X103802598Y-61773925D01*
X103802594Y-61773934D01*
X103741438Y-62002176D01*
X103741436Y-62002186D01*
X103720841Y-62237589D01*
X103720841Y-62237590D01*
X103741436Y-62472993D01*
X103741438Y-62473003D01*
X103802594Y-62701245D01*
X103802596Y-62701249D01*
X103802597Y-62701253D01*
X103836866Y-62774743D01*
X103902465Y-62915420D01*
X103902467Y-62915424D01*
X103999157Y-63053511D01*
X104031709Y-63100000D01*
X104038001Y-63108985D01*
X104038006Y-63108992D01*
X104205097Y-63276083D01*
X104205103Y-63276088D01*
X104390658Y-63406015D01*
X104434283Y-63460592D01*
X104441477Y-63530090D01*
X104409954Y-63592445D01*
X104390658Y-63609165D01*
X104205097Y-63739095D01*
X104038005Y-63906187D01*
X103902465Y-64099759D01*
X103902464Y-64099761D01*
X103802598Y-64313925D01*
X103802594Y-64313934D01*
X103741438Y-64542176D01*
X103741436Y-64542186D01*
X103720841Y-64777589D01*
X103720841Y-64777590D01*
X103741436Y-65012993D01*
X103741438Y-65013003D01*
X103802594Y-65241245D01*
X103802596Y-65241249D01*
X103802597Y-65241253D01*
X103870684Y-65387265D01*
X103902465Y-65455420D01*
X103902467Y-65455424D01*
X103999157Y-65593511D01*
X104038005Y-65648991D01*
X104205099Y-65816085D01*
X104301884Y-65883855D01*
X104398665Y-65951622D01*
X104398667Y-65951623D01*
X104398670Y-65951625D01*
X104612837Y-66051493D01*
X104841092Y-66112653D01*
X105029418Y-66129129D01*
X105076499Y-66133249D01*
X105076500Y-66133249D01*
X105076501Y-66133249D01*
X105115734Y-66129816D01*
X105311908Y-66112653D01*
X105540163Y-66051493D01*
X105622784Y-66012965D01*
X105691860Y-66002474D01*
X105755644Y-66030993D01*
X105793884Y-66089470D01*
X105795762Y-66154293D01*
X105776424Y-66234848D01*
X105770411Y-66253355D01*
X105701165Y-66420533D01*
X105692332Y-66437870D01*
X105597792Y-66592148D01*
X105586354Y-66607891D01*
X105468840Y-66745482D01*
X105455082Y-66759240D01*
X105317491Y-66876754D01*
X105301748Y-66888192D01*
X105147470Y-66982732D01*
X105130133Y-66991565D01*
X104962955Y-67060811D01*
X104944449Y-67066824D01*
X104768510Y-67109061D01*
X104749290Y-67112105D01*
X104564030Y-67126681D01*
X104554302Y-67127063D01*
X104501024Y-67127062D01*
X104493282Y-67127062D01*
X104493281Y-67127062D01*
X104484658Y-67127062D01*
X104484630Y-67127064D01*
X102397485Y-67127064D01*
X102330446Y-67107379D01*
X102284691Y-67054575D01*
X102274747Y-66985417D01*
X102303772Y-66921861D01*
X102309804Y-66915383D01*
X102346045Y-66879141D01*
X102346047Y-66879139D01*
X102476568Y-66692734D01*
X102572739Y-66486496D01*
X102631635Y-66266692D01*
X102650462Y-66051495D01*
X102651468Y-66040001D01*
X102651468Y-66039998D01*
X102638919Y-65896562D01*
X102631635Y-65813308D01*
X102572739Y-65593504D01*
X102476568Y-65387266D01*
X102346047Y-65200861D01*
X102346045Y-65200858D01*
X102185141Y-65039954D01*
X101998734Y-64909432D01*
X101998728Y-64909429D01*
X101940882Y-64882455D01*
X101940724Y-64882381D01*
X101888285Y-64836210D01*
X101869133Y-64769017D01*
X101889348Y-64702135D01*
X101940725Y-64657618D01*
X101941319Y-64657341D01*
X101998734Y-64630568D01*
X102185139Y-64500047D01*
X102346047Y-64339139D01*
X102476568Y-64152734D01*
X102572739Y-63946496D01*
X102631635Y-63726692D01*
X102651468Y-63500000D01*
X102651218Y-63497147D01*
X102631878Y-63276085D01*
X102631635Y-63273308D01*
X102572739Y-63053504D01*
X102476568Y-62847266D01*
X102346047Y-62660861D01*
X102346045Y-62660858D01*
X102185141Y-62499954D01*
X101998734Y-62369432D01*
X101998732Y-62369431D01*
X101792497Y-62273261D01*
X101792488Y-62273258D01*
X101572697Y-62214366D01*
X101572693Y-62214365D01*
X101572692Y-62214365D01*
X101572691Y-62214364D01*
X101572686Y-62214364D01*
X101346002Y-62194532D01*
X101345998Y-62194532D01*
X101119313Y-62214364D01*
X101119302Y-62214366D01*
X100899511Y-62273258D01*
X100899502Y-62273261D01*
X100693267Y-62369431D01*
X100693265Y-62369432D01*
X100506858Y-62499954D01*
X100345954Y-62660858D01*
X100215433Y-62847264D01*
X100215432Y-62847266D01*
X100215315Y-62847518D01*
X100188106Y-62905867D01*
X100141933Y-62958306D01*
X100074739Y-62977457D01*
X100007858Y-62957241D01*
X99963342Y-62905865D01*
X99936135Y-62847520D01*
X99936134Y-62847518D01*
X99805657Y-62661179D01*
X99644820Y-62500342D01*
X99458482Y-62369865D01*
X99252328Y-62273734D01*
X99056000Y-62221127D01*
X99056000Y-63184314D01*
X99051606Y-63179920D01*
X98960394Y-63127259D01*
X98858661Y-63100000D01*
X98753339Y-63100000D01*
X98651606Y-63127259D01*
X98560394Y-63179920D01*
X98556000Y-63184314D01*
X98556000Y-62221127D01*
X98359669Y-62273735D01*
X98312904Y-62295542D01*
X98243826Y-62306034D01*
X98180043Y-62277514D01*
X98141804Y-62219037D01*
X98136500Y-62183160D01*
X98136500Y-62150946D01*
X98136500Y-62150943D01*
X98112445Y-62061166D01*
X98095577Y-61998215D01*
X98049824Y-61918969D01*
X98016520Y-61861284D01*
X97904716Y-61749480D01*
X97900385Y-61745149D01*
X97900374Y-61745139D01*
X97890819Y-61735584D01*
X97857334Y-61674261D01*
X97854500Y-61647903D01*
X97854500Y-59590986D01*
X100375001Y-59590986D01*
X100385494Y-59693697D01*
X100440641Y-59860119D01*
X100440643Y-59860124D01*
X100532684Y-60009345D01*
X100656654Y-60133315D01*
X100805875Y-60225356D01*
X100805880Y-60225358D01*
X100972302Y-60280505D01*
X100972309Y-60280506D01*
X101075019Y-60290999D01*
X101349999Y-60290999D01*
X101850000Y-60290999D01*
X102124972Y-60290999D01*
X102124986Y-60290998D01*
X102227697Y-60280505D01*
X102394119Y-60225358D01*
X102394124Y-60225356D01*
X102543345Y-60133315D01*
X102667315Y-60009345D01*
X102759356Y-59860124D01*
X102759358Y-59860119D01*
X102814505Y-59693697D01*
X102814506Y-59693690D01*
X102824999Y-59590986D01*
X102825000Y-59590973D01*
X102825000Y-59453500D01*
X101850000Y-59453500D01*
X101850000Y-60290999D01*
X101349999Y-60290999D01*
X101350000Y-60290998D01*
X101350000Y-59453500D01*
X100375001Y-59453500D01*
X100375001Y-59590986D01*
X97854500Y-59590986D01*
X97854500Y-58902507D01*
X97863940Y-58855051D01*
X97865009Y-58852472D01*
X97879500Y-58742401D01*
X97879499Y-58380359D01*
X97899183Y-58313322D01*
X97951987Y-58267567D01*
X98021146Y-58257623D01*
X98043868Y-58268000D01*
X98353363Y-58268000D01*
X98353377Y-58267999D01*
X98463341Y-58253521D01*
X98463342Y-58253521D01*
X98600175Y-58196843D01*
X98717679Y-58106679D01*
X98807843Y-57989175D01*
X98864521Y-57852342D01*
X98864522Y-57852339D01*
X98864657Y-57851316D01*
X98865010Y-57850515D01*
X98866625Y-57844492D01*
X98867564Y-57844743D01*
X98892923Y-57787419D01*
X98951247Y-57748947D01*
X98987596Y-57743500D01*
X100345176Y-57743500D01*
X100412215Y-57763185D01*
X100450715Y-57802404D01*
X100522384Y-57918600D01*
X100532288Y-57934656D01*
X100656344Y-58058712D01*
X100659628Y-58060737D01*
X100659653Y-58060753D01*
X100661445Y-58062746D01*
X100662011Y-58063193D01*
X100661934Y-58063289D01*
X100706379Y-58112699D01*
X100717603Y-58181661D01*
X100689761Y-58245744D01*
X100659665Y-58271826D01*
X100656660Y-58273679D01*
X100656655Y-58273683D01*
X100532684Y-58397654D01*
X100440643Y-58546875D01*
X100440641Y-58546880D01*
X100385494Y-58713302D01*
X100385493Y-58713309D01*
X100375000Y-58816013D01*
X100375000Y-58953500D01*
X102824999Y-58953500D01*
X102824999Y-58816028D01*
X102824998Y-58816013D01*
X102814505Y-58713302D01*
X102759358Y-58546880D01*
X102759356Y-58546875D01*
X102667315Y-58397654D01*
X102543344Y-58273683D01*
X102543341Y-58273681D01*
X102540339Y-58271829D01*
X102538713Y-58270021D01*
X102537677Y-58269202D01*
X102537817Y-58269024D01*
X102493617Y-58219880D01*
X102482397Y-58150917D01*
X102510243Y-58086836D01*
X102540344Y-58060754D01*
X102543656Y-58058712D01*
X102667712Y-57934656D01*
X102759814Y-57785334D01*
X102814999Y-57618797D01*
X102825500Y-57516009D01*
X102825499Y-56740992D01*
X102814999Y-56638203D01*
X102759814Y-56471666D01*
X102667712Y-56322344D01*
X102543656Y-56198288D01*
X102394334Y-56106186D01*
X102227797Y-56051001D01*
X102227795Y-56051000D01*
X102125010Y-56040500D01*
X101074998Y-56040500D01*
X101074980Y-56040501D01*
X100972203Y-56051000D01*
X100972200Y-56051001D01*
X100805668Y-56106185D01*
X100805663Y-56106187D01*
X100656342Y-56198289D01*
X100532289Y-56322342D01*
X100514063Y-56351891D01*
X100477558Y-56411077D01*
X100436395Y-56477813D01*
X100435139Y-56477038D01*
X100394371Y-56523343D01*
X100328159Y-56542500D01*
X100262490Y-56542500D01*
X100195451Y-56522815D01*
X100149696Y-56470011D01*
X100139752Y-56400853D01*
X100145448Y-56377547D01*
X100150166Y-56364061D01*
X100150169Y-56364049D01*
X100170365Y-56184803D01*
X100170365Y-56184796D01*
X100150169Y-56005550D01*
X100150168Y-56005545D01*
X100099409Y-55860485D01*
X100090589Y-55835278D01*
X100058364Y-55783993D01*
X100017840Y-55719499D01*
X99994616Y-55682538D01*
X99867062Y-55554984D01*
X99714323Y-55459011D01*
X99544054Y-55399431D01*
X99544049Y-55399430D01*
X99364804Y-55379235D01*
X99364796Y-55379235D01*
X99185550Y-55399430D01*
X99185542Y-55399432D01*
X99033243Y-55452724D01*
X98963464Y-55456285D01*
X98902837Y-55421556D01*
X98870610Y-55359563D01*
X98869350Y-55319496D01*
X98872519Y-55295424D01*
X98879500Y-55242401D01*
X98879499Y-55043600D01*
X98865009Y-54933528D01*
X98865008Y-54933525D01*
X98862905Y-54925674D01*
X98866207Y-54924789D01*
X98860392Y-54871075D01*
X98863501Y-54860485D01*
X98862905Y-54860326D01*
X98865008Y-54852474D01*
X98865007Y-54852474D01*
X98865009Y-54852472D01*
X98865161Y-54851316D01*
X98865561Y-54850412D01*
X98867112Y-54844624D01*
X98868014Y-54844865D01*
X98893426Y-54787420D01*
X98951750Y-54748948D01*
X98988100Y-54743500D01*
X100250501Y-54743500D01*
X100317540Y-54763185D01*
X100363295Y-54815989D01*
X100374501Y-54867500D01*
X100374501Y-55019018D01*
X100385000Y-55121796D01*
X100385001Y-55121799D01*
X100440185Y-55288331D01*
X100440187Y-55288336D01*
X100444559Y-55295424D01*
X100532288Y-55437656D01*
X100656344Y-55561712D01*
X100805666Y-55653814D01*
X100972203Y-55708999D01*
X101074991Y-55719500D01*
X102125008Y-55719499D01*
X102125016Y-55719498D01*
X102125019Y-55719498D01*
X102181302Y-55713748D01*
X102227797Y-55708999D01*
X102394334Y-55653814D01*
X102543656Y-55561712D01*
X102667712Y-55437656D01*
X102759814Y-55288334D01*
X102814999Y-55121797D01*
X102825500Y-55019009D01*
X102825499Y-54243992D01*
X102823248Y-54221960D01*
X102814999Y-54141203D01*
X102814998Y-54141200D01*
X102802070Y-54102186D01*
X102759814Y-53974666D01*
X102667712Y-53825344D01*
X102543656Y-53701288D01*
X102540342Y-53699243D01*
X102538546Y-53697248D01*
X102537989Y-53696807D01*
X102538064Y-53696711D01*
X102493618Y-53647297D01*
X102482397Y-53578334D01*
X102510240Y-53514252D01*
X102540348Y-53488165D01*
X102543342Y-53486318D01*
X102667317Y-53362343D01*
X102716647Y-53282366D01*
X102768594Y-53235641D01*
X102837557Y-53224418D01*
X102901639Y-53252261D01*
G37*
%TD.AperFunction*%
%TA.AperFunction,Conductor*%
G36*
X96072834Y-60834915D02*
G01*
X96128767Y-60876787D01*
X96153184Y-60942251D01*
X96153500Y-60951097D01*
X96153500Y-61927015D01*
X96153499Y-61927033D01*
X96153499Y-62090749D01*
X96133814Y-62157788D01*
X96081010Y-62203543D01*
X96044588Y-62213150D01*
X96044637Y-62213426D01*
X96041338Y-62214007D01*
X96040321Y-62214276D01*
X96039317Y-62214363D01*
X96039302Y-62214366D01*
X95819511Y-62273258D01*
X95819506Y-62273260D01*
X95772904Y-62294991D01*
X95703826Y-62305482D01*
X95640042Y-62276961D01*
X95601803Y-62218484D01*
X95596500Y-62182608D01*
X95596500Y-61260097D01*
X95616185Y-61193058D01*
X95632819Y-61172416D01*
X95941819Y-60863416D01*
X96003142Y-60829931D01*
X96072834Y-60834915D01*
G37*
%TD.AperFunction*%
%TA.AperFunction,Conductor*%
G36*
X95812127Y-54251206D02*
G01*
X95829478Y-54262356D01*
X95907571Y-54322279D01*
X95931828Y-54332326D01*
X95962889Y-54345193D01*
X96017292Y-54389034D01*
X96039357Y-54455328D01*
X96022078Y-54523028D01*
X96003117Y-54547435D01*
X95857553Y-54692999D01*
X95857553Y-54693000D01*
X96104000Y-54939447D01*
X96350447Y-54693000D01*
X96317626Y-54660179D01*
X96539000Y-54660179D01*
X96539000Y-54725821D01*
X96564119Y-54786465D01*
X96610535Y-54832881D01*
X96671179Y-54858000D01*
X96736821Y-54858000D01*
X96797465Y-54832881D01*
X96843881Y-54786465D01*
X96869000Y-54725821D01*
X96869000Y-54660179D01*
X96843881Y-54599535D01*
X96797465Y-54553119D01*
X96736821Y-54528000D01*
X96671179Y-54528000D01*
X96610535Y-54553119D01*
X96564119Y-54599535D01*
X96539000Y-54660179D01*
X96317626Y-54660179D01*
X96262627Y-54605180D01*
X96229142Y-54543857D01*
X96234126Y-54474165D01*
X96275998Y-54418232D01*
X96341462Y-54393815D01*
X96350307Y-54393499D01*
X96353400Y-54393499D01*
X96353402Y-54393499D01*
X96387318Y-54389034D01*
X96463472Y-54379009D01*
X96463475Y-54379007D01*
X96471326Y-54376905D01*
X96472210Y-54380207D01*
X96525925Y-54374392D01*
X96536514Y-54377501D01*
X96536674Y-54376905D01*
X96544524Y-54379008D01*
X96544526Y-54379008D01*
X96544528Y-54379009D01*
X96654599Y-54393500D01*
X96706690Y-54393499D01*
X96773728Y-54413182D01*
X96794371Y-54429818D01*
X96967181Y-54602628D01*
X97000666Y-54663951D01*
X97003500Y-54690307D01*
X97003500Y-54742402D01*
X97017989Y-54852468D01*
X97020094Y-54860322D01*
X97016814Y-54861200D01*
X97022581Y-54915073D01*
X97019517Y-54925522D01*
X97020095Y-54925677D01*
X97017990Y-54933529D01*
X97003500Y-55043598D01*
X97003500Y-55046691D01*
X97003238Y-55047581D01*
X97003234Y-55047650D01*
X97003218Y-55047648D01*
X96983815Y-55113730D01*
X96931011Y-55159485D01*
X96861853Y-55169429D01*
X96798297Y-55140404D01*
X96791819Y-55134372D01*
X96704000Y-55046553D01*
X96457553Y-55293000D01*
X96703999Y-55539446D01*
X96849564Y-55393882D01*
X96910887Y-55360397D01*
X96980578Y-55365381D01*
X97036512Y-55407252D01*
X97051806Y-55434109D01*
X97059517Y-55452724D01*
X97074721Y-55489429D01*
X97164964Y-55607036D01*
X97164967Y-55607039D01*
X97164971Y-55607043D01*
X97166564Y-55608637D01*
X97167477Y-55610310D01*
X97169912Y-55613483D01*
X97169417Y-55613862D01*
X97200045Y-55669962D01*
X97195056Y-55739653D01*
X97166559Y-55783993D01*
X97057553Y-55893000D01*
X97166559Y-56002005D01*
X97200044Y-56063328D01*
X97195060Y-56133020D01*
X97169755Y-56172396D01*
X97169912Y-56172517D01*
X97168475Y-56174389D01*
X97166565Y-56177362D01*
X97164971Y-56178956D01*
X97164966Y-56178962D01*
X97164964Y-56178964D01*
X97116287Y-56242401D01*
X97074718Y-56296574D01*
X97074718Y-56296575D01*
X97051805Y-56351891D01*
X97007963Y-56406293D01*
X96941669Y-56428357D01*
X96873970Y-56411077D01*
X96849564Y-56392117D01*
X96704000Y-56246553D01*
X96457553Y-56493000D01*
X96703999Y-56739446D01*
X96791818Y-56651627D01*
X96853141Y-56618142D01*
X96922833Y-56623126D01*
X96978767Y-56664997D01*
X97003184Y-56730461D01*
X97003500Y-56739291D01*
X97003500Y-56742399D01*
X97017989Y-56852468D01*
X97020094Y-56860322D01*
X97016814Y-56861200D01*
X97022581Y-56915073D01*
X97019517Y-56925522D01*
X97020095Y-56925677D01*
X97017990Y-56933529D01*
X97003500Y-57043598D01*
X97003500Y-57242400D01*
X97005165Y-57255045D01*
X96994396Y-57324080D01*
X96948013Y-57376333D01*
X96880743Y-57395215D01*
X96866046Y-57394164D01*
X96853401Y-57392500D01*
X96654596Y-57392500D01*
X96544531Y-57406989D01*
X96536678Y-57409094D01*
X96535802Y-57405824D01*
X96481853Y-57411567D01*
X96471477Y-57408518D01*
X96471323Y-57409095D01*
X96463470Y-57406990D01*
X96353402Y-57392500D01*
X96350308Y-57392500D01*
X96349417Y-57392238D01*
X96349350Y-57392234D01*
X96349350Y-57392218D01*
X96283269Y-57372815D01*
X96237514Y-57320011D01*
X96227570Y-57250853D01*
X96256595Y-57187297D01*
X96262627Y-57180818D01*
X96350446Y-57092999D01*
X96317626Y-57060179D01*
X96539000Y-57060179D01*
X96539000Y-57125821D01*
X96564119Y-57186465D01*
X96610535Y-57232881D01*
X96671179Y-57258000D01*
X96736821Y-57258000D01*
X96797465Y-57232881D01*
X96843881Y-57186465D01*
X96869000Y-57125821D01*
X96869000Y-57060179D01*
X96843881Y-56999535D01*
X96797465Y-56953119D01*
X96736821Y-56928000D01*
X96671179Y-56928000D01*
X96610535Y-56953119D01*
X96564119Y-56999535D01*
X96539000Y-57060179D01*
X96317626Y-57060179D01*
X96104000Y-56846553D01*
X95857553Y-57093000D01*
X95945388Y-57180835D01*
X95978873Y-57242158D01*
X95973889Y-57311850D01*
X95932017Y-57367783D01*
X95866553Y-57392200D01*
X95857460Y-57392230D01*
X95857461Y-57392500D01*
X95654596Y-57392500D01*
X95544536Y-57406988D01*
X95544527Y-57406991D01*
X95407573Y-57463719D01*
X95407570Y-57463721D01*
X95329486Y-57523637D01*
X95264317Y-57548831D01*
X95195872Y-57534792D01*
X95178514Y-57523637D01*
X95100429Y-57463721D01*
X95100428Y-57463720D01*
X95045109Y-57440806D01*
X94990706Y-57396964D01*
X94968642Y-57330670D01*
X94985922Y-57262970D01*
X95004882Y-57238564D01*
X95150446Y-57092999D01*
X95117626Y-57060179D01*
X95339000Y-57060179D01*
X95339000Y-57125821D01*
X95364119Y-57186465D01*
X95410535Y-57232881D01*
X95471179Y-57258000D01*
X95536821Y-57258000D01*
X95597465Y-57232881D01*
X95643881Y-57186465D01*
X95669000Y-57125821D01*
X95669000Y-57060179D01*
X95643881Y-56999535D01*
X95597465Y-56953119D01*
X95536821Y-56928000D01*
X95471179Y-56928000D01*
X95410535Y-56953119D01*
X95364119Y-56999535D01*
X95339000Y-57060179D01*
X95117626Y-57060179D01*
X94904000Y-56846553D01*
X94657553Y-57093000D01*
X94745372Y-57180819D01*
X94778857Y-57242142D01*
X94773873Y-57311834D01*
X94732001Y-57367767D01*
X94666537Y-57392184D01*
X94657708Y-57392500D01*
X94654600Y-57392500D01*
X94544531Y-57406989D01*
X94536678Y-57409094D01*
X94535802Y-57405824D01*
X94481853Y-57411567D01*
X94471477Y-57408518D01*
X94471323Y-57409095D01*
X94463470Y-57406990D01*
X94353410Y-57392501D01*
X94353407Y-57392500D01*
X94353401Y-57392500D01*
X94353394Y-57392500D01*
X94301309Y-57392500D01*
X94234270Y-57372815D01*
X94213628Y-57356181D01*
X93966559Y-57109112D01*
X93939839Y-57060179D01*
X94139000Y-57060179D01*
X94139000Y-57125821D01*
X94164119Y-57186465D01*
X94210535Y-57232881D01*
X94271179Y-57258000D01*
X94336821Y-57258000D01*
X94397465Y-57232881D01*
X94443881Y-57186465D01*
X94469000Y-57125821D01*
X94469000Y-57060179D01*
X94443881Y-56999535D01*
X94397465Y-56953119D01*
X94336821Y-56928000D01*
X94271179Y-56928000D01*
X94210535Y-56953119D01*
X94164119Y-56999535D01*
X94139000Y-57060179D01*
X93939839Y-57060179D01*
X93933074Y-57047789D01*
X93938058Y-56978097D01*
X93939679Y-56973978D01*
X93948319Y-56953119D01*
X93990009Y-56852472D01*
X94004500Y-56742401D01*
X94004499Y-56739321D01*
X94004760Y-56738433D01*
X94004766Y-56738350D01*
X94004784Y-56738351D01*
X94024174Y-56672283D01*
X94076972Y-56626521D01*
X94146129Y-56616568D01*
X94209689Y-56645584D01*
X94216180Y-56651627D01*
X94304000Y-56739447D01*
X94550447Y-56493000D01*
X95257553Y-56493000D01*
X95504000Y-56739447D01*
X95750447Y-56493000D01*
X95504000Y-56246553D01*
X95257553Y-56493000D01*
X94550447Y-56493000D01*
X94304000Y-56246553D01*
X94216164Y-56334389D01*
X94154841Y-56367873D01*
X94085149Y-56362889D01*
X94029216Y-56321017D01*
X94004799Y-56255553D01*
X94004786Y-56246460D01*
X94004500Y-56246461D01*
X94004499Y-56043598D01*
X93997333Y-55989165D01*
X93990009Y-55933528D01*
X93990008Y-55933525D01*
X93987905Y-55925674D01*
X93991207Y-55924789D01*
X93985392Y-55871075D01*
X93988501Y-55860485D01*
X93987905Y-55860326D01*
X93987944Y-55860179D01*
X94139000Y-55860179D01*
X94139000Y-55925821D01*
X94164119Y-55986465D01*
X94210535Y-56032881D01*
X94271179Y-56058000D01*
X94336821Y-56058000D01*
X94397465Y-56032881D01*
X94443881Y-55986465D01*
X94469000Y-55925821D01*
X94469000Y-55893000D01*
X94657553Y-55893000D01*
X94904000Y-56139447D01*
X95150447Y-55893000D01*
X95117626Y-55860179D01*
X95339000Y-55860179D01*
X95339000Y-55925821D01*
X95364119Y-55986465D01*
X95410535Y-56032881D01*
X95471179Y-56058000D01*
X95536821Y-56058000D01*
X95597465Y-56032881D01*
X95643881Y-55986465D01*
X95669000Y-55925821D01*
X95669000Y-55893000D01*
X95857553Y-55893000D01*
X96104000Y-56139447D01*
X96350447Y-55893000D01*
X96317626Y-55860179D01*
X96539000Y-55860179D01*
X96539000Y-55925821D01*
X96564119Y-55986465D01*
X96610535Y-56032881D01*
X96671179Y-56058000D01*
X96736821Y-56058000D01*
X96797465Y-56032881D01*
X96843881Y-55986465D01*
X96869000Y-55925821D01*
X96869000Y-55860179D01*
X96843881Y-55799535D01*
X96797465Y-55753119D01*
X96736821Y-55728000D01*
X96671179Y-55728000D01*
X96610535Y-55753119D01*
X96564119Y-55799535D01*
X96539000Y-55860179D01*
X96317626Y-55860179D01*
X96104000Y-55646553D01*
X95857553Y-55893000D01*
X95669000Y-55893000D01*
X95669000Y-55860179D01*
X95643881Y-55799535D01*
X95597465Y-55753119D01*
X95536821Y-55728000D01*
X95471179Y-55728000D01*
X95410535Y-55753119D01*
X95364119Y-55799535D01*
X95339000Y-55860179D01*
X95117626Y-55860179D01*
X94904000Y-55646553D01*
X94657553Y-55893000D01*
X94469000Y-55893000D01*
X94469000Y-55860179D01*
X94443881Y-55799535D01*
X94397465Y-55753119D01*
X94336821Y-55728000D01*
X94271179Y-55728000D01*
X94210535Y-55753119D01*
X94164119Y-55799535D01*
X94139000Y-55860179D01*
X93987944Y-55860179D01*
X93990008Y-55852475D01*
X93990008Y-55852474D01*
X93990009Y-55852472D01*
X94004500Y-55742401D01*
X94004499Y-55543600D01*
X94004499Y-55539542D01*
X94006573Y-55539541D01*
X94019859Y-55479483D01*
X94069437Y-55430251D01*
X94137761Y-55415639D01*
X94203140Y-55440285D01*
X94216163Y-55451610D01*
X94304000Y-55539447D01*
X94550447Y-55293000D01*
X95257553Y-55293000D01*
X95504000Y-55539447D01*
X95750447Y-55293000D01*
X95504000Y-55046553D01*
X95257553Y-55293000D01*
X94550447Y-55293000D01*
X94304000Y-55046553D01*
X94216180Y-55134373D01*
X94154857Y-55167857D01*
X94085165Y-55162873D01*
X94029232Y-55121001D01*
X94004815Y-55055537D01*
X94004499Y-55046691D01*
X94004499Y-55043597D01*
X93990009Y-54933529D01*
X93990009Y-54933528D01*
X93990008Y-54933525D01*
X93987905Y-54925674D01*
X93991207Y-54924789D01*
X93985392Y-54871075D01*
X93988501Y-54860485D01*
X93987905Y-54860326D01*
X93990008Y-54852475D01*
X93990008Y-54852474D01*
X93990009Y-54852472D01*
X94004500Y-54742401D01*
X94004499Y-54690307D01*
X94013345Y-54660179D01*
X94139000Y-54660179D01*
X94139000Y-54725821D01*
X94164119Y-54786465D01*
X94210535Y-54832881D01*
X94271179Y-54858000D01*
X94336821Y-54858000D01*
X94397465Y-54832881D01*
X94443881Y-54786465D01*
X94469000Y-54725821D01*
X94469000Y-54660179D01*
X94443881Y-54599535D01*
X94397465Y-54553119D01*
X94336821Y-54528000D01*
X94271179Y-54528000D01*
X94210535Y-54553119D01*
X94164119Y-54599535D01*
X94139000Y-54660179D01*
X94013345Y-54660179D01*
X94024182Y-54623270D01*
X94040818Y-54602627D01*
X94213628Y-54429818D01*
X94274951Y-54396333D01*
X94301306Y-54393499D01*
X94353400Y-54393499D01*
X94353402Y-54393499D01*
X94387318Y-54389034D01*
X94463472Y-54379009D01*
X94463475Y-54379007D01*
X94471326Y-54376905D01*
X94472210Y-54380207D01*
X94525925Y-54374392D01*
X94536514Y-54377501D01*
X94536674Y-54376905D01*
X94544524Y-54379008D01*
X94544526Y-54379008D01*
X94544528Y-54379009D01*
X94654599Y-54393500D01*
X94657677Y-54393499D01*
X94658564Y-54393760D01*
X94658650Y-54393766D01*
X94658648Y-54393785D01*
X94724716Y-54413174D01*
X94770478Y-54465972D01*
X94780431Y-54535129D01*
X94751415Y-54598689D01*
X94745373Y-54605180D01*
X94657553Y-54693000D01*
X94904000Y-54939447D01*
X95150447Y-54693000D01*
X95117626Y-54660179D01*
X95339000Y-54660179D01*
X95339000Y-54725821D01*
X95364119Y-54786465D01*
X95410535Y-54832881D01*
X95471179Y-54858000D01*
X95536821Y-54858000D01*
X95597465Y-54832881D01*
X95643881Y-54786465D01*
X95669000Y-54725821D01*
X95669000Y-54660179D01*
X95643881Y-54599535D01*
X95597465Y-54553119D01*
X95536821Y-54528000D01*
X95471179Y-54528000D01*
X95410535Y-54553119D01*
X95364119Y-54599535D01*
X95339000Y-54660179D01*
X95117626Y-54660179D01*
X95062611Y-54605164D01*
X95029126Y-54543841D01*
X95034110Y-54474149D01*
X95075982Y-54418216D01*
X95141446Y-54393799D01*
X95150539Y-54393785D01*
X95150539Y-54393500D01*
X95154598Y-54393499D01*
X95154599Y-54393500D01*
X95353253Y-54393499D01*
X95353403Y-54393499D01*
X95463463Y-54379011D01*
X95463467Y-54379009D01*
X95463472Y-54379009D01*
X95600429Y-54322279D01*
X95678515Y-54262360D01*
X95743682Y-54237168D01*
X95812127Y-54251206D01*
G37*
%TD.AperFunction*%
%TA.AperFunction,Conductor*%
G36*
X98051951Y-50525685D02*
G01*
X98090449Y-50564901D01*
X98119288Y-50611656D01*
X98243344Y-50735712D01*
X98392666Y-50827814D01*
X98559203Y-50882999D01*
X98661991Y-50893500D01*
X99712008Y-50893499D01*
X99712016Y-50893498D01*
X99712019Y-50893498D01*
X99778733Y-50886683D01*
X99814797Y-50882999D01*
X99981334Y-50827814D01*
X100130656Y-50735712D01*
X100254712Y-50611656D01*
X100283549Y-50564902D01*
X100335497Y-50518179D01*
X100389088Y-50506000D01*
X100905912Y-50506000D01*
X100972951Y-50525685D01*
X101011449Y-50564901D01*
X101040288Y-50611656D01*
X101164344Y-50735712D01*
X101313666Y-50827814D01*
X101480203Y-50882999D01*
X101582991Y-50893500D01*
X101667480Y-50893499D01*
X101734518Y-50913183D01*
X101755161Y-50929818D01*
X102082662Y-51257319D01*
X102116147Y-51318642D01*
X102111163Y-51388334D01*
X102069291Y-51444267D01*
X102003827Y-51468684D01*
X101994981Y-51469000D01*
X101850000Y-51469000D01*
X101850000Y-52682500D01*
X101830315Y-52749539D01*
X101777511Y-52795294D01*
X101726000Y-52806500D01*
X100375001Y-52806500D01*
X100375001Y-52943986D01*
X100385494Y-53046697D01*
X100440641Y-53213119D01*
X100440643Y-53213124D01*
X100527169Y-53353403D01*
X100545609Y-53420795D01*
X100524687Y-53487459D01*
X100471045Y-53532229D01*
X100421630Y-53542500D01*
X98513508Y-53542500D01*
X98466058Y-53533062D01*
X98463475Y-53531992D01*
X98463470Y-53531990D01*
X98353410Y-53517501D01*
X98353407Y-53517500D01*
X98353401Y-53517500D01*
X98353394Y-53517500D01*
X98003499Y-53517500D01*
X97936460Y-53497815D01*
X97890705Y-53445011D01*
X97879499Y-53393500D01*
X97879499Y-53043597D01*
X97872601Y-52991199D01*
X97883367Y-52922164D01*
X97929748Y-52869909D01*
X97954588Y-52857973D01*
X97987119Y-52846590D01*
X97987122Y-52846589D01*
X98050923Y-52806500D01*
X98139862Y-52750616D01*
X98267416Y-52623062D01*
X98363389Y-52470322D01*
X98422968Y-52300055D01*
X98437733Y-52169013D01*
X100375000Y-52169013D01*
X100375000Y-52306500D01*
X101350000Y-52306500D01*
X101350000Y-51469000D01*
X101075029Y-51469000D01*
X101075012Y-51469001D01*
X100972302Y-51479494D01*
X100805880Y-51534641D01*
X100805875Y-51534643D01*
X100656654Y-51626684D01*
X100532684Y-51750654D01*
X100440643Y-51899875D01*
X100440641Y-51899880D01*
X100385494Y-52066302D01*
X100385493Y-52066309D01*
X100375000Y-52169013D01*
X98437733Y-52169013D01*
X98443165Y-52120803D01*
X98443165Y-52120796D01*
X98422969Y-51941550D01*
X98422968Y-51941545D01*
X98388199Y-51842182D01*
X98363389Y-51771278D01*
X98362952Y-51770583D01*
X98267415Y-51618537D01*
X98139862Y-51490984D01*
X97987123Y-51395011D01*
X97816854Y-51335431D01*
X97816849Y-51335430D01*
X97637604Y-51315235D01*
X97637596Y-51315235D01*
X97492383Y-51331596D01*
X97423561Y-51319541D01*
X97372182Y-51272192D01*
X97354500Y-51208376D01*
X97354500Y-50630000D01*
X97374185Y-50562961D01*
X97426989Y-50517206D01*
X97478500Y-50506000D01*
X97984912Y-50506000D01*
X98051951Y-50525685D01*
G37*
%TD.AperFunction*%
%TA.AperFunction,Conductor*%
G36*
X91810394Y-47192621D02*
G01*
X91856149Y-47245425D01*
X91866713Y-47309536D01*
X91866001Y-47316506D01*
X91866000Y-47316526D01*
X91866000Y-47454000D01*
X94315999Y-47454000D01*
X94315999Y-47316528D01*
X94315997Y-47316503D01*
X94315286Y-47309534D01*
X94328057Y-47240841D01*
X94375940Y-47189959D01*
X94438644Y-47172936D01*
X94791355Y-47172936D01*
X94858394Y-47192621D01*
X94904149Y-47245425D01*
X94914713Y-47309536D01*
X94914001Y-47316506D01*
X94914000Y-47316526D01*
X94914000Y-47454000D01*
X97363999Y-47454000D01*
X97363999Y-47316528D01*
X97363997Y-47316503D01*
X97363286Y-47309534D01*
X97376057Y-47240841D01*
X97423940Y-47189959D01*
X97486644Y-47172936D01*
X97842063Y-47172936D01*
X97909102Y-47192621D01*
X97954857Y-47245425D01*
X97965421Y-47309540D01*
X97962000Y-47343016D01*
X97962000Y-47480500D01*
X100411999Y-47480500D01*
X100411999Y-47343028D01*
X100411997Y-47343008D01*
X100408579Y-47309536D01*
X100421349Y-47240844D01*
X100469231Y-47189960D01*
X100531937Y-47172936D01*
X100763063Y-47172936D01*
X100830102Y-47192621D01*
X100875857Y-47245425D01*
X100886421Y-47309540D01*
X100883000Y-47343016D01*
X100883000Y-47480500D01*
X103332999Y-47480500D01*
X103332999Y-47343028D01*
X103332997Y-47343008D01*
X103329579Y-47309536D01*
X103342349Y-47240844D01*
X103390231Y-47189960D01*
X103452937Y-47172936D01*
X104484630Y-47172936D01*
X104484658Y-47172937D01*
X104493278Y-47172936D01*
X104493282Y-47172938D01*
X104554303Y-47172936D01*
X104564028Y-47173317D01*
X104749296Y-47187895D01*
X104768504Y-47190937D01*
X104944458Y-47233178D01*
X104962955Y-47239188D01*
X105130133Y-47308434D01*
X105147467Y-47317265D01*
X105301751Y-47411809D01*
X105317491Y-47423245D01*
X105455082Y-47540759D01*
X105468840Y-47554517D01*
X105586354Y-47692108D01*
X105597792Y-47707851D01*
X105692332Y-47862129D01*
X105701165Y-47879466D01*
X105770411Y-48046644D01*
X105776424Y-48065150D01*
X105799866Y-48162799D01*
X105796375Y-48232582D01*
X105755710Y-48289399D01*
X105690783Y-48315211D01*
X105626888Y-48304127D01*
X105540169Y-48263689D01*
X105540155Y-48263684D01*
X105311913Y-48202528D01*
X105311903Y-48202526D01*
X105076501Y-48181931D01*
X105076499Y-48181931D01*
X104841096Y-48202526D01*
X104841086Y-48202528D01*
X104612844Y-48263684D01*
X104612835Y-48263688D01*
X104398671Y-48363554D01*
X104398669Y-48363555D01*
X104205097Y-48499095D01*
X104038005Y-48666187D01*
X103902465Y-48859759D01*
X103902464Y-48859761D01*
X103802598Y-49073925D01*
X103802594Y-49073934D01*
X103741438Y-49302176D01*
X103741436Y-49302186D01*
X103720841Y-49537589D01*
X103720841Y-49537590D01*
X103741436Y-49772993D01*
X103741438Y-49773003D01*
X103802594Y-50001245D01*
X103802596Y-50001249D01*
X103802597Y-50001253D01*
X103820131Y-50038854D01*
X103902465Y-50215420D01*
X103902467Y-50215424D01*
X104010781Y-50370111D01*
X104038005Y-50408991D01*
X104205099Y-50576085D01*
X104391094Y-50706320D01*
X104434718Y-50760897D01*
X104441911Y-50830396D01*
X104410389Y-50892750D01*
X104391093Y-50909470D01*
X104315126Y-50962662D01*
X104315125Y-50962662D01*
X104947090Y-51594627D01*
X104883507Y-51611665D01*
X104769493Y-51677491D01*
X104676401Y-51770583D01*
X104610575Y-51884597D01*
X104593537Y-51948180D01*
X104090233Y-51444876D01*
X104056748Y-51383553D01*
X104056310Y-51381451D01*
X104051580Y-51357672D01*
X104046004Y-51344211D01*
X104035785Y-51319541D01*
X103998778Y-51230196D01*
X103998777Y-51230195D01*
X103998775Y-51230189D01*
X103922114Y-51115457D01*
X103922112Y-51115454D01*
X103922111Y-51115453D01*
X103322189Y-50515532D01*
X103288704Y-50454209D01*
X103292163Y-50388849D01*
X103322999Y-50295797D01*
X103333500Y-50193009D01*
X103333499Y-49417992D01*
X103322999Y-49315203D01*
X103267814Y-49148666D01*
X103175712Y-48999344D01*
X103051656Y-48875288D01*
X103048342Y-48873243D01*
X103046546Y-48871248D01*
X103045989Y-48870807D01*
X103046064Y-48870711D01*
X103001618Y-48821297D01*
X102990397Y-48752334D01*
X103018240Y-48688252D01*
X103048348Y-48662165D01*
X103051342Y-48660318D01*
X103175315Y-48536345D01*
X103267356Y-48387124D01*
X103267358Y-48387119D01*
X103322505Y-48220697D01*
X103322506Y-48220690D01*
X103332999Y-48117986D01*
X103333000Y-48117973D01*
X103333000Y-47980500D01*
X100883001Y-47980500D01*
X100883001Y-48117986D01*
X100893494Y-48220697D01*
X100948641Y-48387119D01*
X100948643Y-48387124D01*
X101040684Y-48536345D01*
X101164655Y-48660316D01*
X101164659Y-48660319D01*
X101167656Y-48662168D01*
X101169279Y-48663972D01*
X101170323Y-48664798D01*
X101170181Y-48664976D01*
X101214381Y-48714116D01*
X101225602Y-48783079D01*
X101197759Y-48847161D01*
X101167661Y-48873241D01*
X101164349Y-48875283D01*
X101164343Y-48875288D01*
X101040289Y-48999342D01*
X101040288Y-48999344D01*
X101011452Y-49046096D01*
X101011451Y-49046097D01*
X100959503Y-49092821D01*
X100905912Y-49105000D01*
X100389088Y-49105000D01*
X100322049Y-49085315D01*
X100283549Y-49046097D01*
X100254712Y-48999344D01*
X100130656Y-48875288D01*
X100127342Y-48873243D01*
X100125546Y-48871248D01*
X100124989Y-48870807D01*
X100125064Y-48870711D01*
X100080618Y-48821297D01*
X100069397Y-48752334D01*
X100097240Y-48688252D01*
X100127348Y-48662165D01*
X100130342Y-48660318D01*
X100254315Y-48536345D01*
X100346356Y-48387124D01*
X100346358Y-48387119D01*
X100401505Y-48220697D01*
X100401506Y-48220690D01*
X100411999Y-48117986D01*
X100412000Y-48117973D01*
X100412000Y-47980500D01*
X97962001Y-47980500D01*
X97962001Y-48117986D01*
X97972494Y-48220697D01*
X98027641Y-48387119D01*
X98027643Y-48387124D01*
X98119684Y-48536345D01*
X98243655Y-48660316D01*
X98243659Y-48660319D01*
X98246656Y-48662168D01*
X98248279Y-48663972D01*
X98249323Y-48664798D01*
X98249181Y-48664976D01*
X98293381Y-48714116D01*
X98304602Y-48783079D01*
X98276759Y-48847161D01*
X98246661Y-48873241D01*
X98243349Y-48875283D01*
X98243343Y-48875288D01*
X98119289Y-48999342D01*
X98119288Y-48999344D01*
X98090452Y-49046096D01*
X98090451Y-49046097D01*
X98038503Y-49092821D01*
X97984912Y-49105000D01*
X97357433Y-49105000D01*
X97290394Y-49085315D01*
X97251894Y-49046096D01*
X97223056Y-48999342D01*
X97206712Y-48972844D01*
X97082656Y-48848788D01*
X97079342Y-48846743D01*
X97077546Y-48844748D01*
X97076989Y-48844307D01*
X97077064Y-48844211D01*
X97032618Y-48794797D01*
X97021397Y-48725834D01*
X97049240Y-48661752D01*
X97079348Y-48635665D01*
X97082342Y-48633818D01*
X97206315Y-48509845D01*
X97298356Y-48360624D01*
X97298358Y-48360619D01*
X97353505Y-48194197D01*
X97353506Y-48194190D01*
X97363999Y-48091486D01*
X97364000Y-48091473D01*
X97364000Y-47954000D01*
X94899679Y-47954000D01*
X94869899Y-47970259D01*
X94829665Y-47972311D01*
X94742004Y-47962435D01*
X94741996Y-47962435D01*
X94562750Y-47982630D01*
X94562742Y-47982632D01*
X94474710Y-48013436D01*
X94404931Y-48016997D01*
X94346074Y-47984075D01*
X94315999Y-47954000D01*
X91866001Y-47954000D01*
X91866001Y-48091486D01*
X91876494Y-48194197D01*
X91931641Y-48360619D01*
X91931643Y-48360624D01*
X92023684Y-48509845D01*
X92147655Y-48633816D01*
X92147659Y-48633819D01*
X92150656Y-48635668D01*
X92152279Y-48637472D01*
X92153323Y-48638298D01*
X92153181Y-48638476D01*
X92197381Y-48687616D01*
X92208602Y-48756579D01*
X92180759Y-48820661D01*
X92150661Y-48846741D01*
X92147349Y-48848783D01*
X92147343Y-48848788D01*
X92023289Y-48972842D01*
X91931187Y-49122163D01*
X91931186Y-49122166D01*
X91876001Y-49288703D01*
X91876001Y-49288704D01*
X91876000Y-49288704D01*
X91865500Y-49391483D01*
X91865500Y-50166501D01*
X91865501Y-50166519D01*
X91876000Y-50269296D01*
X91876001Y-50269299D01*
X91931185Y-50435831D01*
X91931189Y-50435840D01*
X91949229Y-50465087D01*
X91967669Y-50532479D01*
X91946746Y-50599143D01*
X91893104Y-50643912D01*
X91823773Y-50652573D01*
X91760766Y-50622376D01*
X91756009Y-50617864D01*
X91213318Y-50075173D01*
X91179833Y-50013850D01*
X91176999Y-49987492D01*
X91176999Y-48639719D01*
X91176998Y-48639713D01*
X91176757Y-48637472D01*
X91170591Y-48580107D01*
X91120296Y-48445259D01*
X91120295Y-48445258D01*
X91120293Y-48445254D01*
X91034047Y-48330045D01*
X91034044Y-48330042D01*
X90918835Y-48243796D01*
X90918828Y-48243792D01*
X90783982Y-48193498D01*
X90783983Y-48193498D01*
X90724383Y-48187091D01*
X90724381Y-48187090D01*
X90724373Y-48187090D01*
X90724365Y-48187090D01*
X89225793Y-48187090D01*
X89158754Y-48167405D01*
X89112999Y-48114601D01*
X89103055Y-48045443D01*
X89111231Y-48015639D01*
X89167633Y-47879467D01*
X89176462Y-47862137D01*
X89271013Y-47707842D01*
X89282439Y-47692115D01*
X89399963Y-47554512D01*
X89413712Y-47540763D01*
X89551315Y-47423239D01*
X89567042Y-47411813D01*
X89721337Y-47317262D01*
X89738666Y-47308434D01*
X89832610Y-47269522D01*
X89905846Y-47239187D01*
X89924337Y-47233178D01*
X90100297Y-47190936D01*
X90119501Y-47187895D01*
X90304772Y-47173317D01*
X90314495Y-47172936D01*
X90375518Y-47172938D01*
X90375521Y-47172936D01*
X90384141Y-47172937D01*
X90384170Y-47172936D01*
X91743355Y-47172936D01*
X91810394Y-47192621D01*
G37*
%TD.AperFunction*%
%TD*%
M02*
